<?xml version="1.0" encoding="utf-8"?>
<svg version="1.1" xmlns:xlink="http://www.w3.org/1999/xlink" width="32px" height="32px" xmlns="http://www.w3.org/2000/svg">
  <g transform="matrix(1 0 0 1 -40 -676 )">
    <path d="M 32 16  C 32 7.199999999999999  24.8 0  16 0  C 7.2 0  0 7.2  0 16  C 0 24.8  7.2 32  16 32  C 24.8 32  32 24.8  32 16  Z M 30 16  C 30 23.7  23.7 30  16 30  C 8.3 30  2 23.7  2 16  C 2 8.3  8.3 2  16 2  C 23.7 2  30 8.3  30 16  Z M 23.099999999999994 10.700000000000001  C 22.7 10.3  22 10.3  21.7 10.7  L 14.2 19.1  L 10.2 15.500000000000002  C 9.799999999999999 15.100000000000001  9.2 15.200000000000001  8.799999999999999 15.600000000000001  C 8.399999999999999 16  8.499999999999998 16.6  8.899999999999999 17  L 13.599999999999998 21.3  C 13.799999999999997 21.5  13.999999999999998 21.6  14.299999999999997 21.6  C 14.299999999999997 21.6  14.299999999999997 21.6  14.399999999999997 21.6  C 14.699999999999998 21.6  14.899999999999997 21.5  15.099999999999996 21.3  L 23.199999999999996 12.100000000000001  C 23.599999999999994 11.700000000000001  23.499999999999996 11.000000000000002  23.099999999999994 10.700000000000001  Z " fill-rule="nonzero" fill="#598527" stroke="none" transform="matrix(1 0 0 1 40 676 )" />
  </g>
</svg>