<?xml version="1.0" encoding="utf-8"?>
<svg version="1.1" xmlns:xlink="http://www.w3.org/1999/xlink" width="24px" height="24px" xmlns="http://www.w3.org/2000/svg">
  <g transform="matrix(1 0 0 1 -349 -19 )">
    <path d="M 24 12  C 24 5.371875000000001  18.628124999999997 0  12 0  C 5.371874999999999 0  0 5.371874999999999  0 12  C 0 18.628124999999997  5.371874999999999 24  12 24  C 18.628124999999997 24  24 18.628124999999997  24 12  Z M 21.75 12  C 21.75 17.37609375  17.3765625 21.75  12 21.75  C 6.6234375000000005 21.75  2.25 17.37609375  2.25 12  C 2.25 6.62390625  6.6234375000000005 2.25  12 2.25  C 17.3765625 2.25  21.75 6.62390625  21.75 12  Z M 13.5 17.25  C 13.5 16.40625  12.801562500000001 15.75  12 15.75  C 11.15625 15.75  10.5 16.40625  10.5 17.25  C 10.5 18.09375  11.1140625 18.75  12 18.75  C 12.801562500000001 18.75  13.5 18.09375  13.5 17.25  Z M 16.832812500000003 9.28125  C 16.875 7.453125  15.421875 6  13.551562500000001 6  L 11.156250000000002 6  C 9.328125 6  7.875 7.453125  7.875 9.28125  C 7.875 9.890625  8.390625 10.40625  9 10.40625  C 9.609375 10.40625  10.125 9.890625  10.125 9.28125  C 10.125 8.71875  10.5515625 8.25  11.1140625 8.25  L 13.509374999999999 8.25  C 14.114062500000001 8.25  14.625 8.71875  14.625 9.28125  C 14.625 9.65625  14.4375 9.9421875  14.109375 10.1296875  L 11.4375 11.765625  C 11.0625 12  10.875 12.375  10.875 12.75  L 10.875 13.5  C 10.875 14.109375  11.390625 14.625  12 14.625  C 12.609375 14.625  13.125 14.109375  13.125 13.5  L 13.125 13.40625  L 15.239062500000001 12.09375  C 16.223437500000003 11.484375  16.832812500000003 10.40625  16.832812500000003 9.28125  Z " fill-rule="nonzero" fill="#4a4a4a" stroke="none" transform="matrix(1 0 0 1 349 19 )" />
  </g>
</svg>