<?xml version="1.0" encoding="utf-8"?>
<svg version="1.1" xmlns:xlink="http://www.w3.org/1999/xlink" width="20px" height="17px" xmlns="http://www.w3.org/2000/svg">
  <g transform="matrix(1 0 0 1 -24 -24 )">
    <path d="M 18.830969769021742 7.463630859374999  C 19.41440217391304 7.464062500000001  19.8515625 7.930234375  19.8515625 8.5  C 19.8515625 9.071923828125001  19.376426630434782 9.536369140625  18.79133831521739 9.536369140625  L 3.8135190217391295 9.536369140625  L 9.673233695652172 15.000939453125  C 10.098250679347824 15.396149609375003  10.11344089673913 16.054574218750002  9.70911175271739 16.465927734375004  C 9.3048046875 16.88004375  8.634315557065218 16.8948921875  8.210402513586956 16.500998535156253  L 0.43866338315217335 9.24943603515625  C 0.22770040760869525 9.05681640625  0.10904008152173875 8.784882812500001  0.10904008152173875 8.5  C 0.10904008152173875 8.215117187499999  0.22770040760869525 7.9475  0.4374490489130431 7.748945312499999  L 8.209188179347827 0.4973828124999998  C 8.631114130434783 0.10502148437499997  9.302309782608695 0.11969726562500022  9.708559782608697 0.534072265625  C 10.112866847826087 0.9441308593750004  10.097676630434783 1.6023828125000004  9.67268172554348 1.9990605468749998  L 3.812967051630434 7.463630859374999  L 18.830969769021742 7.463630859374999  Z " fill-rule="nonzero" fill="#000000" stroke="none" transform="matrix(1 0 0 1 24 24 )" />
  </g>
</svg>