<?xml version="1.0" encoding="utf-8"?>
<svg version="1.1" xmlns:xlink="http://www.w3.org/1999/xlink" width="22px" height="22px" xmlns="http://www.w3.org/2000/svg">
  <g transform="matrix(1 0 0 1 -14 -17 )">
    <path d="M 0 11  C 0 17.07578125  4.92421875 22  11 22  C 17.07578125 22  22 17.07578125  22 11  C 22 4.924218750000001  17.07578125 0  11 0  C 4.924218750000001 0  0 4.92421875  0 11  Z M 9.96875 6.53125  C 9.96875 5.959765624999999  10.428515625 5.5  11 5.5  C 11.571484375 5.5  12.03125 5.959765624999999  12.03125 6.53125  L 12.03125 11.34375  C 12.03125 11.915234375  11.571484375 12.375  11 12.375  C 10.428515625 12.375  9.96875 11.915234375  9.96875 11.34375  L 9.96875 6.53125  Z M 11 13.75  C 11.760546875 13.75  12.375 14.364453125  12.375 15.125  C 12.375 15.885546875  11.760546875 16.5  11 16.5  C 10.239453125 16.5  9.625 15.885546875  9.625 15.125  C 9.625 14.364453125  10.239453125 13.75  11 13.75  Z " fill-rule="nonzero" fill="#01498b" stroke="none" transform="matrix(1 0 0 1 14 17 )" />
  </g>
</svg>