<?xml version="1.0" encoding="utf-8"?>
<svg version="1.1" xmlns:xlink="http://www.w3.org/1999/xlink" width="15px" height="16px" xmlns="http://www.w3.org/2000/svg">
  <g transform="matrix(1 0 0 1 -321 -21 )">
    <path d="M 7.5 5.956666666666666  L 12.462890625 0.3133333333333335  C 12.8291015625 -0.10333333333333314  13.423828125000002 -0.10333333333333314  13.790039062500002 0.3133333333333335  C 14.156250000000002 0.7300000000000002  14.156250000000002 1.4066666666666663  13.790039062500002 1.823333333333333  L 8.8271484375 7.466666666666667  L 13.787109375 13.113333333333333  C 14.1533203125 13.53  14.1533203125 14.206666666666669  13.787109375 14.623333333333335  C 13.4208984375 15.040000000000001  12.826171874999998 15.040000000000001  12.459960937499998 14.623333333333335  L 7.5 8.976666666666667  L 2.537109375 14.620000000000001  C 2.1708984375 15.036666666666667  1.5761718750000004 15.036666666666667  1.2099609375000004 14.620000000000001  C 0.8437500000000003 14.203333333333335  0.8437500000000003 13.526666666666666  1.2099609375000004 13.109999999999998  L 6.1728515625 7.466666666666667  L 1.2128906250000002 1.8199999999999998  C 0.8466796875000002 1.403333333333333  0.8466796875000002 0.7300000000000002  1.2128906250000002 0.3133333333333335  C 1.5791015625000002 -0.10333333333333314  2.1738281249999996 -0.10333333333333314  2.5400390624999996 0.3133333333333335  L 7.5 5.956666666666666  Z " fill-rule="nonzero" fill="#1d1d1d" stroke="none" transform="matrix(1 0 0 1 321 21 )" />
  </g>
</svg>